<?xml version="1.0" encoding="UTF-8"?>
<!DOCTYPE svg PUBLIC "-//W3C//DTD SVG 1.1//EN" "http://www.w3.org/Graphics/SVG/1.1/DTD/svg11.dtd">
<svg version="1.2" width="25.4mm" height="25.4mm" viewBox="4810 14970 2540 2540" preserveAspectRatio="xMidYMid" fill-rule="evenodd" stroke-width="28.222" stroke-linejoin="round" xmlns="http://www.w3.org/2000/svg" xmlns:ooo="http://xml.openoffice.org/svg/export" xmlns:xlink="http://www.w3.org/1999/xlink" xmlns:presentation="http://sun.com/xmlns/staroffice/presentation" xmlns:smil="http://www.w3.org/2001/SMIL20/" xmlns:anim="urn:oasis:names:tc:opendocument:xmlns:animation:1.0" xml:space="preserve">
 <defs class="ClipPathGroup">
  <clipPath id="presentation_clip_path" clipPathUnits="userSpaceOnUse">
   <rect x="4810" y="14970" width="2540" height="2540"/>
  </clipPath>
  <clipPath id="presentation_clip_path_shrink" clipPathUnits="userSpaceOnUse">
   <rect x="4812" y="14972" width="2535" height="2535"/>
  </clipPath>
 </defs>
 <defs class="TextShapeIndex">
  <g ooo:slide="id1" ooo:id-list="id3 id4 id5 id6 id7 id8 id9 id10 id11"/>
 </defs>
 <defs class="EmbeddedBulletChars">
  <g id="bullet-char-template-57356" transform="scale(0.00048828125,-0.00048828125)">
   <path d="M 580,1141 L 1163,571 580,0 -4,571 580,1141 Z"/>
  </g>
  <g id="bullet-char-template-57354" transform="scale(0.00048828125,-0.00048828125)">
   <path d="M 8,1128 L 1137,1128 1137,0 8,0 8,1128 Z"/>
  </g>
  <g id="bullet-char-template-10146" transform="scale(0.00048828125,-0.00048828125)">
   <path d="M 174,0 L 602,739 174,1481 1456,739 174,0 Z M 1358,739 L 309,1346 659,739 1358,739 Z"/>
  </g>
  <g id="bullet-char-template-10132" transform="scale(0.00048828125,-0.00048828125)">
   <path d="M 2015,739 L 1276,0 717,0 1260,543 174,543 174,936 1260,936 717,1481 1274,1481 2015,739 Z"/>
  </g>
  <g id="bullet-char-template-10007" transform="scale(0.00048828125,-0.00048828125)">
   <path d="M 0,-2 C -7,14 -16,27 -25,37 L 356,567 C 262,823 215,952 215,954 215,979 228,992 255,992 264,992 276,990 289,987 310,991 331,999 354,1012 L 381,999 492,748 772,1049 836,1024 860,1049 C 881,1039 901,1025 922,1006 886,937 835,863 770,784 769,783 710,716 594,584 L 774,223 C 774,196 753,168 711,139 L 727,119 C 717,90 699,76 672,76 641,76 570,178 457,381 L 164,-76 C 142,-110 111,-127 72,-127 30,-127 9,-110 8,-76 1,-67 -2,-52 -2,-32 -2,-23 -1,-13 0,-2 Z"/>
  </g>
  <g id="bullet-char-template-10004" transform="scale(0.00048828125,-0.00048828125)">
   <path d="M 285,-33 C 182,-33 111,30 74,156 52,228 41,333 41,471 41,549 55,616 82,672 116,743 169,778 240,778 293,778 328,747 346,684 L 369,508 C 377,444 397,411 428,410 L 1163,1116 C 1174,1127 1196,1133 1229,1133 1271,1133 1292,1118 1292,1087 L 1292,965 C 1292,929 1282,901 1262,881 L 442,47 C 390,-6 338,-33 285,-33 Z"/>
  </g>
  <g id="bullet-char-template-9679" transform="scale(0.00048828125,-0.00048828125)">
   <path d="M 813,0 C 632,0 489,54 383,161 276,268 223,411 223,592 223,773 276,916 383,1023 489,1130 632,1184 813,1184 992,1184 1136,1130 1245,1023 1353,916 1407,772 1407,592 1407,412 1353,268 1245,161 1136,54 992,0 813,0 Z"/>
  </g>
  <g id="bullet-char-template-8226" transform="scale(0.00048828125,-0.00048828125)">
   <path d="M 346,457 C 273,457 209,483 155,535 101,586 74,649 74,723 74,796 101,859 155,911 209,963 273,989 346,989 419,989 480,963 531,910 582,859 608,796 608,723 608,648 583,586 532,535 482,483 420,457 346,457 Z"/>
  </g>
  <g id="bullet-char-template-8211" transform="scale(0.00048828125,-0.00048828125)">
   <path d="M -4,459 L 1135,459 1135,606 -4,606 -4,459 Z"/>
  </g>
  <g id="bullet-char-template-61548" transform="scale(0.00048828125,-0.00048828125)">
   <path d="M 173,740 C 173,903 231,1043 346,1159 462,1274 601,1332 765,1332 928,1332 1067,1274 1183,1159 1299,1043 1357,903 1357,740 1357,577 1299,437 1183,322 1067,206 928,148 765,148 601,148 462,206 346,322 231,437 173,577 173,740 Z"/>
  </g>
 </defs>
 <defs class="TextEmbeddedBitmaps"/>
 <g class="SlideGroup">
  <g>
   <g id="container-id1">
    <g id="id1" class="Slide" clip-path="url(#presentation_clip_path)">
     <g class="Page">
      <g class="Group">
       <g class="com.sun.star.drawing.ClosedBezierShape">
        <g id="id3">
         <rect class="BoundingBox" stroke="none" fill="none" x="4810" y="16145" width="934" height="1366"/>
         <path fill="rgb(0,0,0)" stroke="none" d="M 5278,16146 L 5306,16147 C 5307,16147 5308,16147 5310,16147 L 5336,16151 C 5337,16151 5339,16151 5340,16151 L 5366,16157 C 5367,16158 5369,16158 5370,16159 L 5395,16167 C 5397,16168 5398,16168 5399,16169 L 5424,16180 C 5425,16180 5427,16181 5428,16182 L 5452,16195 C 5454,16196 5455,16197 5456,16198 L 5480,16214 C 5482,16215 5483,16216 5484,16217 L 5508,16236 C 5509,16236 5509,16237 5510,16237 5510,16237 5511,16238 5511,16238 L 5534,16259 C 5536,16260 5537,16261 5538,16263 L 5559,16285 C 5561,16286 5562,16287 5563,16289 L 5583,16313 C 5584,16314 5585,16315 5586,16317 L 5605,16342 C 5606,16344 5607,16345 5608,16347 L 5626,16375 C 5627,16376 5628,16378 5629,16379 L 5645,16409 C 5646,16411 5647,16412 5648,16414 L 5663,16446 C 5664,16447 5664,16449 5665,16450 L 5679,16484 C 5680,16485 5680,16486 5680,16487 5681,16488 5681,16488 5681,16489 L 5694,16524 C 5695,16526 5695,16528 5696,16529 L 5707,16565 C 5708,16567 5708,16568 5709,16570 L 5718,16606 C 5718,16608 5719,16610 5719,16612 L 5727,16648 C 5727,16650 5728,16652 5728,16654 L 5734,16691 C 5734,16693 5734,16695 5735,16697 L 5739,16735 C 5739,16737 5739,16739 5739,16741 L 5742,16779 C 5742,16781 5742,16783 5742,16785 L 5743,16825 C 5743,16826 5743,16827 5743,16828 5743,16829 5743,16830 5743,16831 L 5742,16870 C 5742,16872 5742,16874 5742,16876 L 5739,16915 C 5739,16917 5739,16919 5739,16921 L 5735,16958 C 5734,16961 5734,16963 5734,16965 L 5728,17001 C 5728,17004 5727,17006 5727,17008 L 5719,17044 C 5719,17046 5718,17048 5718,17050 L 5709,17085 C 5708,17087 5708,17089 5707,17091 L 5696,17126 C 5695,17128 5695,17130 5694,17131 L 5681,17166 C 5681,17167 5681,17168 5680,17169 5680,17170 5680,17170 5679,17171 L 5665,17205 C 5664,17207 5664,17208 5663,17210 L 5648,17242 C 5647,17243 5646,17245 5645,17247 L 5629,17276 C 5628,17278 5627,17279 5626,17281 L 5608,17309 C 5607,17310 5606,17312 5605,17313 L 5586,17339 C 5585,17340 5584,17342 5583,17343 L 5563,17367 C 5562,17368 5561,17369 5559,17371 L 5538,17393 C 5537,17394 5536,17395 5534,17396 L 5511,17417 C 5511,17418 5510,17418 5510,17419 5509,17419 5509,17419 5508,17420 L 5484,17439 C 5483,17440 5482,17441 5480,17441 L 5456,17458 C 5455,17459 5454,17459 5452,17460 L 5428,17474 C 5427,17475 5425,17475 5424,17476 L 5399,17487 C 5398,17487 5397,17488 5395,17488 L 5370,17497 C 5369,17497 5367,17498 5366,17498 L 5340,17504 C 5339,17504 5337,17505 5336,17505 L 5310,17508 C 5308,17509 5307,17509 5306,17509 L 5278,17510 C 5278,17510 5277,17510 5276,17510 5276,17510 5275,17510 5274,17510 L 5247,17509 C 5246,17509 5245,17509 5243,17508 L 5217,17505 C 5215,17505 5214,17504 5213,17504 L 5187,17498 C 5185,17498 5184,17497 5183,17497 L 5158,17488 C 5156,17488 5155,17487 5153,17487 L 5129,17476 C 5127,17475 5126,17475 5125,17474 L 5100,17460 C 5099,17459 5098,17459 5096,17458 L 5072,17441 C 5071,17441 5070,17440 5069,17439 L 5045,17420 C 5044,17419 5044,17419 5043,17419 5043,17418 5042,17418 5042,17417 L 5018,17396 C 5017,17395 5016,17394 5015,17393 L 4993,17371 C 4992,17369 4991,17368 4990,17367 L 4970,17343 C 4969,17342 4968,17340 4967,17339 L 4948,17313 C 4947,17312 4946,17310 4945,17309 L 4927,17281 C 4926,17279 4925,17278 4924,17276 L 4908,17247 C 4907,17245 4906,17243 4905,17242 L 4890,17210 C 4889,17208 4888,17207 4888,17205 L 4873,17171 C 4873,17170 4873,17170 4872,17169 4872,17168 4872,17167 4872,17166 L 4859,17131 C 4858,17130 4857,17128 4857,17126 L 4846,17091 C 4845,17089 4845,17087 4844,17085 L 4835,17050 C 4834,17048 4834,17046 4833,17044 L 4826,17008 C 4825,17006 4825,17004 4825,17001 L 4819,16965 C 4819,16963 4818,16961 4818,16958 L 4814,16921 C 4814,16919 4814,16917 4813,16915 L 4811,16876 C 4811,16874 4811,16872 4811,16870 L 4810,16831 C 4810,16830 4810,16829 4810,16828 4810,16827 4810,16826 4810,16825 L 4811,16785 C 4811,16783 4811,16781 4811,16779 L 4813,16741 C 4814,16739 4814,16737 4814,16735 L 4818,16697 C 4818,16695 4819,16693 4819,16691 L 4825,16654 C 4825,16652 4825,16650 4826,16648 L 4833,16612 C 4834,16610 4834,16608 4835,16606 L 4844,16570 C 4845,16568 4845,16567 4846,16565 L 4857,16529 C 4857,16528 4858,16526 4859,16524 L 4872,16489 C 4872,16488 4872,16488 4872,16487 4873,16486 4873,16485 4873,16484 L 4888,16450 C 4888,16449 4889,16447 4890,16446 L 4905,16414 C 4906,16412 4907,16411 4908,16409 L 4924,16379 C 4925,16378 4926,16376 4927,16375 L 4945,16347 C 4946,16345 4947,16344 4948,16342 L 4967,16317 C 4968,16315 4969,16314 4970,16313 L 4990,16289 C 4991,16287 4992,16286 4993,16285 L 5015,16263 C 5016,16261 5017,16260 5018,16259 L 5042,16238 C 5042,16238 5043,16237 5043,16237 5044,16237 5044,16236 5045,16236 L 5069,16217 C 5070,16216 5071,16215 5072,16214 L 5096,16198 C 5098,16197 5099,16196 5100,16195 L 5125,16182 C 5126,16181 5127,16180 5129,16180 L 5153,16169 C 5155,16168 5156,16168 5158,16167 L 5183,16159 C 5184,16158 5185,16158 5187,16157 L 5213,16151 C 5214,16151 5215,16151 5217,16151 L 5243,16147 C 5245,16147 5246,16147 5247,16147 L 5274,16146 5276,16240 5278,16146 Z M 5037,16478 L 5023,16500 5009,16525 4996,16552 4984,16581 4973,16611 4963,16640 4956,16670 4949,16700 4945,16730 4941,16761 4939,16794 4939,16828 4939,16862 4941,16895 4945,16926 4949,16956 4956,16986 4963,17015 4973,17045 4984,17075 4996,17104 5009,17131 5023,17155 5037,17178 5053,17199 5069,17219 5088,17238 5107,17256 5128,17272 5148,17286 5168,17297 5189,17306 5209,17313 5231,17318 5253,17321 5276,17322 5300,17321 5322,17318 5343,17313 5364,17306 5384,17297 5404,17286 5425,17272 5445,17256 5465,17238 5483,17219 5500,17199 5516,17178 5530,17155 5544,17131 5557,17104 5569,17075 5580,17045 5589,17015 5597,16986 5603,16956 5608,16926 5612,16895 5614,16862 5614,16828 5614,16794 5612,16761 5608,16730 5603,16700 5597,16670 5589,16640 5580,16611 5569,16581 5557,16552 5544,16525 5530,16500 5516,16478 5500,16456 5483,16437 5465,16418 5445,16400 5425,16384 5404,16370 5384,16359 5364,16349 5343,16342 5322,16338 5300,16335 5276,16334 5253,16335 5231,16338 5209,16342 5189,16349 5168,16359 5148,16370 5128,16384 5107,16400 5088,16418 5069,16437 5053,16456 5037,16478 Z"/>
        </g>
       </g>
       <g class="com.sun.star.drawing.ClosedBezierShape">
        <g id="id4">
         <rect class="BoundingBox" stroke="none" fill="none" x="4810" y="14970" width="934" height="1366"/>
         <path fill="rgb(0,0,0)" stroke="none" d="M 5278,14970 L 5306,14971 C 5307,14971 5308,14971 5310,14972 L 5336,14975 C 5337,14975 5339,14976 5340,14976 L 5366,14982 C 5367,14982 5369,14983 5370,14983 L 5395,14992 C 5397,14992 5398,14993 5399,14993 L 5424,15004 C 5425,15005 5427,15005 5428,15006 L 5452,15020 C 5454,15021 5455,15021 5456,15022 L 5480,15039 C 5482,15039 5483,15040 5484,15041 L 5508,15060 C 5509,15061 5509,15061 5510,15061 5510,15062 5511,15062 5511,15063 L 5534,15084 C 5536,15085 5537,15086 5538,15087 L 5559,15109 C 5561,15111 5562,15112 5563,15113 L 5583,15137 C 5584,15138 5585,15140 5586,15141 L 5605,15167 C 5606,15168 5607,15170 5608,15171 L 5626,15199 C 5627,15201 5628,15202 5629,15204 L 5645,15233 C 5646,15235 5647,15237 5648,15238 L 5663,15270 C 5664,15272 5664,15273 5665,15275 L 5679,15309 C 5680,15310 5680,15310 5680,15311 5681,15312 5681,15313 5681,15314 L 5694,15349 C 5695,15350 5695,15352 5696,15354 L 5707,15389 C 5708,15391 5708,15393 5709,15395 L 5718,15430 C 5718,15432 5719,15434 5719,15436 L 5727,15472 C 5727,15474 5728,15476 5728,15479 L 5734,15515 C 5734,15517 5734,15519 5735,15522 L 5739,15559 C 5739,15561 5739,15563 5739,15565 L 5742,15604 C 5742,15606 5742,15608 5742,15610 L 5743,15649 C 5743,15650 5743,15651 5743,15652 5743,15653 5743,15654 5743,15655 L 5742,15695 C 5742,15697 5742,15699 5742,15701 L 5739,15739 C 5739,15741 5739,15743 5739,15745 L 5735,15783 C 5734,15785 5734,15787 5734,15789 L 5728,15826 C 5728,15828 5727,15830 5727,15832 L 5719,15868 C 5719,15870 5718,15872 5718,15874 L 5709,15910 C 5708,15912 5708,15913 5707,15915 L 5696,15951 C 5695,15952 5695,15954 5694,15956 L 5681,15991 C 5681,15992 5681,15992 5680,15993 5680,15994 5680,15995 5679,15996 L 5665,16030 C 5664,16031 5664,16033 5663,16034 L 5648,16066 C 5647,16068 5646,16069 5645,16071 L 5629,16101 C 5628,16102 5627,16104 5626,16105 L 5608,16133 C 5607,16135 5606,16136 5605,16138 L 5586,16163 C 5585,16165 5584,16166 5583,16167 L 5563,16191 C 5562,16193 5561,16194 5559,16195 L 5538,16217 C 5537,16219 5536,16220 5534,16221 L 5511,16242 C 5511,16242 5510,16243 5510,16243 5509,16243 5509,16244 5508,16244 L 5484,16263 C 5483,16264 5482,16265 5480,16266 L 5456,16282 C 5455,16283 5454,16284 5452,16285 L 5428,16298 C 5427,16299 5425,16300 5424,16300 L 5399,16311 C 5398,16312 5397,16312 5395,16313 L 5370,16321 C 5369,16322 5367,16322 5366,16323 L 5340,16329 C 5339,16329 5337,16329 5336,16329 L 5310,16333 C 5308,16333 5307,16333 5306,16333 L 5278,16334 C 5278,16334 5277,16334 5276,16334 5276,16334 5275,16334 5274,16334 L 5247,16333 C 5246,16333 5245,16333 5243,16333 L 5217,16329 C 5215,16329 5214,16329 5213,16329 L 5187,16323 C 5185,16322 5184,16322 5183,16321 L 5158,16313 C 5156,16312 5155,16312 5153,16311 L 5129,16300 C 5127,16300 5126,16299 5125,16298 L 5100,16285 C 5099,16284 5098,16283 5096,16282 L 5072,16266 C 5071,16265 5070,16264 5069,16263 L 5045,16244 C 5044,16244 5044,16243 5043,16243 5043,16243 5042,16242 5042,16242 L 5018,16221 C 5017,16220 5016,16219 5015,16217 L 4993,16195 C 4992,16194 4991,16193 4990,16191 L 4970,16167 C 4969,16166 4968,16165 4967,16163 L 4948,16138 C 4947,16136 4946,16135 4945,16133 L 4927,16105 C 4926,16104 4925,16102 4924,16101 L 4908,16071 C 4907,16069 4906,16068 4905,16066 L 4890,16034 C 4889,16033 4888,16031 4888,16030 L 4873,15996 C 4873,15995 4873,15994 4872,15993 4872,15992 4872,15992 4872,15991 L 4859,15956 C 4858,15954 4857,15952 4857,15951 L 4846,15915 C 4845,15913 4845,15912 4844,15910 L 4835,15874 C 4834,15872 4834,15870 4833,15868 L 4826,15832 C 4825,15830 4825,15828 4825,15826 L 4819,15789 C 4819,15787 4818,15785 4818,15783 L 4814,15745 C 4814,15743 4814,15741 4813,15739 L 4811,15701 C 4811,15699 4811,15697 4811,15695 L 4810,15655 C 4810,15654 4810,15653 4810,15652 4810,15651 4810,15650 4810,15649 L 4811,15610 C 4811,15608 4811,15606 4811,15604 L 4813,15565 C 4814,15563 4814,15561 4814,15559 L 4818,15522 C 4818,15519 4819,15517 4819,15515 L 4825,15479 C 4825,15476 4825,15474 4826,15472 L 4833,15436 C 4834,15434 4834,15432 4835,15430 L 4844,15395 C 4845,15393 4845,15391 4846,15389 L 4857,15354 C 4857,15352 4858,15350 4859,15349 L 4872,15314 C 4872,15313 4872,15312 4872,15311 4873,15310 4873,15310 4873,15309 L 4888,15275 C 4888,15273 4889,15272 4890,15270 L 4905,15238 C 4906,15237 4907,15235 4908,15233 L 4924,15204 C 4925,15202 4926,15201 4927,15199 L 4945,15171 C 4946,15170 4947,15168 4948,15167 L 4967,15141 C 4968,15140 4969,15138 4970,15137 L 4990,15113 C 4991,15112 4992,15111 4993,15109 L 5015,15087 C 5016,15086 5017,15085 5018,15084 L 5042,15063 C 5042,15062 5043,15062 5043,15061 5044,15061 5044,15061 5045,15060 L 5069,15041 C 5070,15040 5071,15039 5072,15039 L 5096,15022 C 5098,15021 5099,15021 5100,15020 L 5125,15006 C 5126,15005 5127,15005 5129,15004 L 5153,14993 C 5155,14993 5156,14992 5158,14992 L 5183,14983 C 5184,14983 5185,14982 5187,14982 L 5213,14976 C 5214,14976 5215,14975 5217,14975 L 5243,14972 C 5245,14971 5246,14971 5247,14971 L 5274,14970 5276,15064 5278,14970 Z M 5037,15302 L 5023,15325 5009,15349 4996,15376 4984,15405 4973,15435 4963,15465 4956,15494 4949,15524 4945,15554 4941,15585 4939,15618 4939,15652 4939,15686 4941,15719 4945,15750 4949,15780 4956,15810 4963,15840 4973,15869 4984,15899 4996,15928 5009,15955 5023,15980 5037,16002 5053,16024 5069,16043 5088,16062 5107,16080 5128,16096 5148,16110 5168,16121 5189,16131 5209,16138 5231,16142 5253,16145 5276,16146 5300,16145 5322,16142 5343,16138 5364,16131 5384,16121 5404,16110 5425,16096 5445,16080 5465,16062 5483,16043 5500,16024 5516,16002 5530,15980 5544,15955 5557,15928 5569,15899 5580,15869 5589,15840 5597,15810 5603,15780 5608,15750 5612,15719 5614,15686 5614,15652 5614,15618 5612,15585 5608,15554 5603,15524 5597,15494 5589,15465 5580,15435 5569,15405 5557,15376 5544,15349 5530,15325 5516,15302 5500,15281 5483,15261 5465,15242 5445,15224 5425,15208 5404,15194 5384,15183 5364,15174 5343,15167 5322,15162 5300,15159 5276,15158 5253,15159 5231,15162 5209,15167 5189,15174 5168,15183 5148,15194 5128,15208 5107,15224 5088,15242 5069,15261 5053,15281 5037,15302 Z"/>
        </g>
       </g>
       <g class="com.sun.star.drawing.ClosedBezierShape">
        <g id="id5">
         <rect class="BoundingBox" stroke="none" fill="none" x="5613" y="15558" width="131" height="1356"/>
         <path fill="rgb(0,0,0)" stroke="none" d="M 5614,15652 C 5614,15635 5617,15620 5623,15605 5628,15590 5636,15579 5646,15571 5656,15562 5666,15558 5678,15558 5690,15558 5700,15562 5710,15571 5721,15579 5728,15590 5734,15605 5740,15620 5742,15635 5742,15652 L 5742,16819 C 5742,16836 5740,16851 5734,16866 5728,16880 5721,16891 5710,16900 5700,16909 5690,16912 5678,16912 5666,16912 5656,16909 5646,16900 5636,16891 5628,16880 5623,16866 5617,16851 5614,16836 5614,16819 L 5614,15652 Z"/>
        </g>
       </g>
       <g class="com.sun.star.drawing.ClosedBezierShape">
        <g id="id6">
         <rect class="BoundingBox" stroke="none" fill="none" x="5613" y="16733" width="935" height="778"/>
         <path fill="rgb(0,0,0)" stroke="none" d="M 6418,16825 C 6418,16808 6421,16793 6427,16778 6433,16764 6441,16753 6451,16745 6462,16737 6472,16733 6484,16734 6496,16734 6505,16739 6516,16748 6526,16757 6533,16768 6538,16783 6544,16798 6546,16813 6546,16831 L 6545,16870 C 6545,16872 6545,16874 6545,16876 L 6543,16915 C 6542,16917 6542,16919 6542,16921 L 6538,16958 C 6538,16961 6537,16963 6537,16965 L 6531,17001 C 6531,17004 6531,17005 6530,17008 L 6523,17044 C 6522,17046 6522,17048 6521,17050 L 6512,17085 C 6511,17087 6511,17089 6510,17091 L 6499,17126 C 6499,17128 6498,17129 6497,17131 L 6485,17166 C 6484,17167 6484,17168 6484,17169 6483,17169 6483,17170 6483,17171 L 6468,17205 C 6468,17207 6467,17208 6466,17210 L 6451,17241 C 6450,17243 6449,17245 6448,17246 L 6432,17276 C 6431,17278 6430,17279 6429,17281 L 6412,17308 C 6411,17310 6410,17311 6408,17313 L 6390,17338 C 6389,17340 6388,17341 6386,17343 L 6366,17367 C 6365,17368 6364,17369 6363,17370 L 6341,17393 C 6340,17394 6339,17395 6338,17396 L 6315,17417 C 6314,17417 6314,17418 6313,17418 6312,17419 6312,17419 6311,17420 L 6287,17438 C 6286,17439 6285,17440 6284,17441 L 6260,17457 C 6258,17458 6257,17459 6256,17460 L 6232,17473 C 6230,17474 6229,17475 6227,17475 L 6203,17486 C 6201,17487 6200,17488 6199,17488 L 6174,17496 C 6172,17497 6171,17497 6169,17498 L 6144,17504 C 6142,17504 6141,17504 6139,17504 L 6113,17508 C 6112,17508 6111,17508 6109,17508 L 6082,17509 C 6081,17510 6081,17510 6080,17510 6079,17510 6079,17510 6078,17509 L 6051,17508 C 6049,17508 6048,17508 6047,17508 L 6021,17504 C 6019,17504 6018,17504 6016,17504 L 5991,17498 C 5989,17497 5988,17497 5986,17496 L 5961,17488 C 5960,17488 5959,17487 5957,17486 L 5933,17475 C 5931,17475 5930,17474 5928,17473 L 5904,17460 C 5903,17459 5902,17458 5900,17457 L 5876,17441 C 5875,17440 5874,17439 5873,17438 L 5849,17420 C 5848,17419 5848,17419 5847,17418 5846,17418 5846,17417 5845,17417 L 5822,17396 C 5821,17395 5820,17394 5819,17393 L 5797,17370 C 5796,17369 5795,17368 5794,17367 L 5774,17343 C 5772,17341 5771,17340 5770,17338 L 5752,17313 C 5750,17311 5749,17310 5748,17308 L 5731,17281 C 5730,17279 5729,17278 5728,17276 L 5712,17246 C 5711,17245 5710,17243 5709,17241 L 5694,17210 C 5693,17208 5692,17207 5692,17205 L 5677,17171 C 5677,17170 5677,17169 5676,17169 5676,17168 5676,17167 5675,17166 L 5663,17131 C 5662,17129 5661,17128 5661,17126 L 5650,17091 C 5649,17089 5649,17087 5648,17085 L 5639,17050 C 5638,17048 5638,17046 5637,17044 L 5630,17008 C 5629,17005 5629,17004 5629,17001 L 5623,16965 C 5623,16963 5622,16961 5622,16958 L 5618,16921 C 5618,16919 5618,16917 5617,16915 L 5615,16876 C 5615,16874 5615,16872 5615,16870 L 5614,16831 C 5614,16813 5616,16798 5622,16783 5627,16768 5634,16757 5644,16748 5655,16739 5664,16734 5676,16734 5688,16733 5698,16737 5709,16745 5719,16753 5727,16764 5733,16778 5739,16793 5742,16808 5742,16825 L 5743,16862 5745,16895 5749,16926 5753,16956 5760,16985 5767,17015 5777,17045 5788,17075 5800,17104 5813,17130 5826,17155 5841,17178 5856,17199 5873,17219 5891,17237 5911,17255 5932,17272 5952,17285 5972,17297 5992,17306 6013,17313 6034,17318 6057,17321 6080,17322 6103,17321 6126,17318 6147,17313 6168,17306 6188,17297 6208,17285 6228,17272 6249,17255 6269,17237 6287,17219 6304,17199 6319,17178 6334,17155 6347,17130 6360,17104 6372,17075 6383,17045 6393,17015 6400,16985 6407,16956 6411,16926 6415,16895 6417,16862 6418,16825 Z"/>
        </g>
       </g>
       <g class="com.sun.star.drawing.ClosedBezierShape">
        <g id="id7">
         <rect class="BoundingBox" stroke="none" fill="none" x="6417" y="16145" width="935" height="1366"/>
         <path fill="rgb(0,0,0)" stroke="none" d="M 6882,16146 L 6884,16240 6886,16146 6913,16147 C 6914,16147 6915,16147 6917,16147 L 6943,16151 C 6945,16151 6946,16151 6947,16151 L 6973,16157 C 6975,16158 6976,16158 6977,16159 L 7002,16167 C 7004,16168 7005,16168 7007,16169 L 7031,16180 C 7033,16180 7034,16181 7035,16182 L 7060,16195 C 7061,16196 7062,16197 7064,16198 L 7088,16214 C 7089,16215 7090,16216 7091,16217 L 7115,16236 C 7116,16236 7116,16237 7117,16237 7117,16237 7118,16238 7118,16238 L 7142,16259 C 7143,16260 7144,16261 7145,16263 L 7167,16285 C 7168,16286 7169,16287 7170,16289 L 7190,16313 C 7191,16314 7192,16315 7193,16317 L 7212,16342 C 7213,16344 7214,16345 7215,16347 L 7233,16375 C 7234,16376 7235,16378 7236,16379 L 7252,16409 C 7253,16411 7254,16412 7255,16414 L 7270,16446 C 7271,16447 7272,16449 7272,16450 L 7287,16484 C 7287,16485 7287,16486 7288,16487 7288,16488 7288,16488 7288,16489 L 7301,16524 C 7302,16526 7303,16528 7303,16529 L 7314,16565 C 7315,16567 7315,16568 7316,16570 L 7325,16606 C 7326,16608 7326,16610 7327,16612 L 7334,16648 C 7335,16650 7335,16652 7335,16654 L 7341,16691 C 7341,16693 7342,16695 7342,16697 L 7346,16735 C 7346,16737 7346,16739 7347,16741 L 7349,16779 C 7349,16781 7349,16783 7349,16785 L 7350,16825 C 7350,16826 7350,16827 7350,16828 7350,16829 7350,16830 7350,16831 L 7349,16870 C 7349,16872 7349,16874 7349,16876 L 7347,16915 C 7346,16917 7346,16919 7346,16921 L 7342,16958 C 7342,16961 7341,16963 7341,16965 L 7335,17001 C 7335,17004 7335,17006 7334,17008 L 7327,17044 C 7326,17046 7326,17048 7325,17050 L 7316,17085 C 7315,17087 7315,17089 7314,17091 L 7303,17126 C 7303,17128 7302,17130 7301,17131 L 7288,17166 C 7288,17167 7288,17168 7288,17169 7287,17170 7287,17170 7287,17171 L 7272,17205 C 7272,17207 7271,17208 7270,17210 L 7255,17242 C 7254,17243 7253,17245 7252,17247 L 7236,17276 C 7235,17278 7234,17279 7233,17281 L 7215,17309 C 7214,17310 7213,17312 7212,17313 L 7193,17339 C 7192,17340 7191,17342 7190,17343 L 7170,17367 C 7169,17368 7168,17369 7167,17371 L 7145,17393 C 7144,17394 7143,17395 7142,17396 L 7118,17417 C 7118,17418 7117,17418 7117,17419 7116,17419 7116,17419 7115,17420 L 7091,17439 C 7090,17440 7089,17441 7088,17441 L 7064,17458 C 7062,17459 7061,17459 7060,17460 L 7035,17474 C 7034,17475 7033,17475 7031,17476 L 7007,17487 C 7005,17487 7004,17488 7002,17488 L 6977,17497 C 6976,17497 6975,17498 6973,17498 L 6947,17504 C 6946,17504 6945,17505 6943,17505 L 6917,17508 C 6915,17509 6914,17509 6913,17509 L 6886,17510 C 6885,17510 6884,17510 6884,17510 6883,17510 6882,17510 6882,17510 L 6854,17509 C 6853,17509 6852,17509 6850,17508 L 6824,17505 C 6823,17505 6821,17504 6820,17504 L 6794,17498 C 6793,17498 6791,17497 6790,17497 L 6765,17488 C 6763,17488 6762,17487 6761,17487 L 6736,17476 C 6735,17475 6733,17475 6732,17474 L 6708,17460 C 6706,17459 6705,17459 6704,17458 L 6680,17441 C 6678,17441 6677,17440 6676,17439 L 6652,17420 C 6651,17419 6651,17419 6650,17419 6650,17418 6649,17418 6649,17417 L 6626,17396 C 6624,17395 6623,17394 6622,17393 L 6601,17371 C 6599,17369 6598,17368 6597,17367 L 6577,17343 C 6576,17342 6575,17340 6574,17339 L 6555,17313 C 6554,17312 6553,17310 6552,17309 L 6534,17281 C 6533,17279 6532,17278 6531,17276 L 6515,17247 C 6514,17245 6513,17243 6512,17242 L 6497,17210 C 6496,17208 6496,17207 6495,17205 L 6481,17171 C 6480,17170 6480,17170 6480,17169 6479,17168 6479,17167 6479,17166 L 6466,17131 C 6465,17130 6465,17128 6464,17126 L 6453,17091 C 6452,17089 6452,17087 6451,17085 L 6442,17050 C 6442,17048 6441,17046 6441,17044 L 6433,17008 C 6433,17006 6432,17004 6432,17001 L 6426,16965 C 6426,16963 6426,16961 6425,16958 L 6421,16921 C 6421,16919 6421,16917 6421,16915 L 6418,16876 C 6418,16874 6418,16872 6418,16870 L 6417,16831 C 6417,16830 6417,16829 6417,16828 6417,16827 6417,16826 6417,16825 L 6418,16785 C 6418,16783 6418,16781 6418,16779 L 6421,16741 C 6421,16739 6421,16737 6421,16735 L 6425,16697 C 6426,16695 6426,16693 6426,16691 L 6432,16654 C 6432,16652 6433,16650 6433,16648 L 6441,16612 C 6441,16610 6442,16608 6442,16606 L 6451,16570 C 6452,16568 6452,16567 6453,16565 L 6464,16529 C 6465,16528 6465,16526 6466,16524 L 6479,16489 C 6479,16488 6479,16488 6480,16487 6480,16486 6480,16485 6481,16484 L 6495,16450 C 6496,16449 6496,16447 6497,16446 L 6512,16414 C 6513,16412 6514,16411 6515,16409 L 6531,16379 C 6532,16378 6533,16376 6534,16375 L 6552,16347 C 6553,16345 6554,16344 6555,16342 L 6574,16317 C 6575,16315 6576,16314 6577,16313 L 6597,16289 C 6598,16287 6599,16286 6601,16285 L 6622,16263 C 6623,16261 6624,16260 6626,16259 L 6649,16238 C 6649,16238 6650,16237 6650,16237 6651,16237 6651,16236 6652,16236 L 6676,16217 C 6677,16216 6678,16215 6680,16214 L 6704,16198 C 6705,16197 6706,16196 6708,16195 L 6732,16182 C 6733,16181 6735,16180 6736,16180 L 6761,16169 C 6762,16168 6763,16168 6765,16167 L 6790,16159 C 6791,16158 6793,16158 6794,16157 L 6820,16151 C 6821,16151 6823,16151 6824,16151 L 6850,16147 C 6852,16147 6853,16147 6854,16147 L 6882,16146 Z M 7072,16418 L 7053,16400 7032,16384 7012,16370 6992,16359 6971,16349 6951,16342 6929,16338 6907,16335 6884,16334 6860,16335 6838,16338 6817,16342 6796,16349 6776,16359 6756,16370 6735,16384 6715,16400 6695,16418 6677,16437 6660,16456 6644,16478 6630,16500 6616,16525 6603,16552 6591,16581 6580,16611 6571,16640 6563,16670 6557,16700 6552,16730 6548,16761 6546,16794 6546,16828 6546,16862 6548,16895 6552,16926 6557,16956 6563,16986 6571,17015 6580,17045 6591,17075 6603,17104 6616,17131 6630,17155 6644,17178 6660,17199 6677,17219 6695,17238 6715,17256 6735,17272 6756,17286 6776,17297 6796,17306 6817,17313 6838,17318 6860,17321 6884,17322 6907,17321 6929,17318 6951,17313 6971,17306 6992,17297 7012,17286 7032,17272 7053,17256 7072,17238 7091,17219 7107,17199 7123,17178 7137,17155 7151,17131 7164,17104 7176,17075 7187,17045 7197,17015 7204,16986 7211,16956 7215,16926 7219,16895 7221,16862 7221,16828 7221,16794 7219,16761 7215,16730 7211,16700 7204,16670 7197,16640 7187,16611 7176,16581 7164,16552 7151,16525 7137,16500 7123,16478 7107,16456 7091,16437 7072,16418 Z"/>
        </g>
       </g>
       <g class="com.sun.star.drawing.ClosedBezierShape">
        <g id="id8">
         <rect class="BoundingBox" stroke="none" fill="none" x="6417" y="15558" width="131" height="1365"/>
         <path fill="rgb(0,0,0)" stroke="none" d="M 6418,15652 C 6418,15635 6420,15620 6426,15605 6432,15590 6439,15579 6450,15571 6460,15562 6470,15558 6482,15558 6494,15558 6504,15562 6514,15571 6524,15579 6532,15590 6537,15605 6543,15620 6546,15635 6546,15652 L 6546,16828 C 6546,16845 6543,16860 6537,16875 6532,16890 6524,16901 6514,16909 6504,16918 6494,16922 6482,16922 6470,16922 6460,16918 6450,16909 6439,16901 6432,16890 6426,16875 6420,16860 6418,16845 6418,16828 L 6418,15652 Z"/>
        </g>
       </g>
       <g class="com.sun.star.drawing.ClosedBezierShape">
        <g id="id9">
         <rect class="BoundingBox" stroke="none" fill="none" x="6417" y="14970" width="934" height="778"/>
         <path fill="rgb(0,0,0)" stroke="none" d="M 6546,15655 C 6546,15672 6543,15687 6536,15702 6530,15716 6523,15727 6512,15735 6502,15743 6492,15747 6480,15746 6468,15746 6458,15741 6448,15732 6438,15723 6431,15712 6425,15697 6420,15682 6417,15667 6418,15649 L 6418,15610 C 6418,15608 6419,15606 6419,15604 L 6421,15565 C 6421,15563 6421,15561 6422,15559 L 6426,15522 C 6426,15519 6426,15517 6426,15515 L 6432,15479 C 6433,15476 6433,15475 6433,15472 L 6441,15436 C 6441,15434 6442,15432 6442,15430 L 6452,15395 C 6452,15393 6453,15391 6453,15389 L 6464,15354 C 6465,15352 6465,15351 6466,15349 L 6479,15314 C 6479,15313 6480,15312 6480,15311 6480,15311 6481,15310 6481,15309 L 6495,15275 C 6496,15273 6497,15272 6497,15270 L 6513,15239 C 6514,15237 6514,15235 6515,15234 L 6532,15204 C 6533,15202 6533,15201 6535,15199 L 6552,15172 C 6553,15170 6554,15169 6555,15167 L 6574,15142 C 6575,15140 6576,15139 6577,15137 L 6597,15113 C 6599,15112 6600,15111 6601,15110 L 6622,15087 C 6624,15086 6625,15085 6626,15084 L 6649,15063 C 6650,15063 6650,15062 6651,15062 6651,15061 6652,15061 6652,15060 L 6676,15042 C 6677,15041 6679,15040 6680,15039 L 6704,15023 C 6705,15022 6706,15021 6708,15020 L 6732,15007 C 6733,15006 6735,15005 6736,15005 L 6761,14994 C 6762,14993 6763,14992 6765,14992 L 6790,14984 C 6792,14983 6793,14983 6794,14982 L 6820,14976 C 6821,14976 6823,14976 6824,14976 L 6851,14972 C 6852,14972 6853,14972 6855,14972 L 6882,14971 C 6882,14970 6883,14970 6884,14970 6884,14970 6885,14970 6886,14971 L 6913,14972 C 6914,14972 6915,14972 6917,14972 L 6943,14976 C 6945,14976 6946,14976 6947,14976 L 6973,14982 C 6974,14983 6976,14983 6977,14984 L 7002,14992 C 7004,14992 7005,14993 7007,14994 L 7031,15005 C 7033,15005 7034,15006 7035,15007 L 7060,15020 C 7061,15021 7062,15022 7063,15023 L 7087,15039 C 7089,15040 7090,15041 7091,15042 L 7115,15060 C 7116,15061 7116,15061 7117,15062 7117,15062 7118,15063 7118,15063 L 7141,15084 C 7143,15085 7144,15086 7145,15087 L 7166,15110 C 7168,15111 7169,15112 7170,15113 L 7190,15137 C 7191,15139 7192,15140 7193,15142 L 7212,15167 C 7213,15169 7214,15170 7215,15172 L 7233,15199 C 7234,15201 7235,15202 7236,15204 L 7252,15234 C 7253,15235 7254,15237 7255,15239 L 7270,15270 C 7271,15272 7271,15273 7272,15275 L 7286,15309 C 7287,15310 7287,15311 7287,15311 7288,15312 7288,15313 7288,15314 L 7301,15349 C 7302,15351 7302,15352 7303,15354 L 7314,15389 C 7315,15391 7315,15393 7316,15395 L 7325,15430 C 7325,15432 7326,15434 7326,15436 L 7334,15472 C 7334,15475 7335,15476 7335,15479 L 7341,15515 C 7341,15517 7341,15519 7342,15522 L 7346,15559 C 7346,15561 7346,15563 7346,15565 L 7349,15604 C 7349,15606 7349,15608 7349,15610 L 7350,15649 C 7350,15667 7348,15682 7342,15697 7336,15712 7329,15723 7319,15732 7309,15741 7299,15746 7287,15746 7275,15747 7265,15743 7255,15735 7245,15727 7237,15716 7231,15702 7225,15687 7222,15672 7221,15655 L 7220,15618 7218,15585 7215,15554 7210,15524 7204,15495 7196,15465 7187,15435 7176,15405 7164,15376 7151,15350 7137,15325 7123,15302 7107,15281 7091,15261 7072,15243 7052,15225 7032,15208 7012,15195 6991,15183 6971,15174 6951,15167 6929,15162 6907,15159 6884,15158 6860,15159 6838,15162 6817,15167 6796,15174 6776,15183 6756,15195 6735,15208 6715,15225 6695,15243 6677,15261 6660,15281 6644,15302 6630,15325 6616,15350 6604,15376 6591,15405 6580,15435 6571,15465 6563,15495 6557,15524 6552,15554 6549,15585 6547,15618 6546,15655 Z"/>
        </g>
       </g>
       <g class="Group">
        <g class="com.sun.star.drawing.ClosedBezierShape">
         <g id="id10">
          <rect class="BoundingBox" stroke="none" fill="none" x="5613" y="14970" width="533" height="1365"/>
          <path fill="rgb(0,0,0)" stroke="none" d="M 5621,15106 C 5615,15091 5613,15076 5614,15059 5615,15042 5618,15027 5625,15013 5631,14998 5639,14988 5649,14980 5660,14973 5670,14970 5682,14971 5694,14972 5704,14976 5714,14986 5723,14996 5730,15007 5736,15022 L 6137,16198 C 6143,16213 6145,16228 6144,16246 6143,16263 6140,16277 6134,16292 6127,16306 6119,16316 6109,16324 6098,16332 6088,16335 6076,16334 6064,16333 6054,16328 6045,16318 6035,16309 6028,16297 6023,16282 L 5621,15106 Z"/>
         </g>
        </g>
        <g class="com.sun.star.drawing.ClosedBezierShape">
         <g id="id11">
          <rect class="BoundingBox" stroke="none" fill="none" x="6015" y="14970" width="533" height="1365"/>
          <path fill="rgb(0,0,0)" stroke="none" d="M 6424,15022 C 6430,15007 6437,14996 6446,14986 6456,14976 6466,14972 6478,14971 6490,14970 6500,14973 6511,14980 6521,14988 6529,14998 6535,15013 6542,15027 6545,15042 6546,15059 6547,15076 6545,15091 6539,15106 L 6137,16282 C 6132,16297 6125,16309 6115,16318 6106,16328 6096,16333 6084,16334 6072,16335 6062,16332 6051,16324 6041,16316 6033,16306 6026,16292 6020,16277 6017,16263 6016,16246 6015,16228 6017,16213 6023,16198 L 6424,15022 Z"/>
         </g>
        </g>
       </g>
      </g>
     </g>
    </g>
   </g>
  </g>
 </g>
</svg>