<?xml version="1.0" encoding="UTF-8"?>
<!DOCTYPE svg PUBLIC "-//W3C//DTD SVG 1.1//EN" "http://www.w3.org/Graphics/SVG/1.1/DTD/svg11.dtd">
<svg version="1.2" width="41.41mm" height="28.71mm" viewBox="9725 10995 4141 2871" preserveAspectRatio="xMidYMid" fill-rule="evenodd" stroke-width="28.222" stroke-linejoin="round" xmlns="http://www.w3.org/2000/svg" xmlns:ooo="http://xml.openoffice.org/svg/export" xmlns:xlink="http://www.w3.org/1999/xlink" xmlns:presentation="http://sun.com/xmlns/staroffice/presentation" xmlns:smil="http://www.w3.org/2001/SMIL20/" xmlns:anim="urn:oasis:names:tc:opendocument:xmlns:animation:1.0" xml:space="preserve">
 <defs class="ClipPathGroup">
  <clipPath id="presentation_clip_path" clipPathUnits="userSpaceOnUse">
   <rect x="9725" y="10995" width="4141" height="2871"/>
  </clipPath>
  <clipPath id="presentation_clip_path_shrink" clipPathUnits="userSpaceOnUse">
   <rect x="9729" y="10997" width="4133" height="2866"/>
  </clipPath>
 </defs>
 <defs class="TextShapeIndex">
  <g ooo:slide="id1" ooo:id-list="id3 id4 id5 id6 id7 id8 id9 id10 id11"/>
 </defs>
 <defs class="EmbeddedBulletChars">
  <g id="bullet-char-template-57356" transform="scale(0.00048828125,-0.00048828125)">
   <path d="M 580,1141 L 1163,571 580,0 -4,571 580,1141 Z"/>
  </g>
  <g id="bullet-char-template-57354" transform="scale(0.00048828125,-0.00048828125)">
   <path d="M 8,1128 L 1137,1128 1137,0 8,0 8,1128 Z"/>
  </g>
  <g id="bullet-char-template-10146" transform="scale(0.00048828125,-0.00048828125)">
   <path d="M 174,0 L 602,739 174,1481 1456,739 174,0 Z M 1358,739 L 309,1346 659,739 1358,739 Z"/>
  </g>
  <g id="bullet-char-template-10132" transform="scale(0.00048828125,-0.00048828125)">
   <path d="M 2015,739 L 1276,0 717,0 1260,543 174,543 174,936 1260,936 717,1481 1274,1481 2015,739 Z"/>
  </g>
  <g id="bullet-char-template-10007" transform="scale(0.00048828125,-0.00048828125)">
   <path d="M 0,-2 C -7,14 -16,27 -25,37 L 356,567 C 262,823 215,952 215,954 215,979 228,992 255,992 264,992 276,990 289,987 310,991 331,999 354,1012 L 381,999 492,748 772,1049 836,1024 860,1049 C 881,1039 901,1025 922,1006 886,937 835,863 770,784 769,783 710,716 594,584 L 774,223 C 774,196 753,168 711,139 L 727,119 C 717,90 699,76 672,76 641,76 570,178 457,381 L 164,-76 C 142,-110 111,-127 72,-127 30,-127 9,-110 8,-76 1,-67 -2,-52 -2,-32 -2,-23 -1,-13 0,-2 Z"/>
  </g>
  <g id="bullet-char-template-10004" transform="scale(0.00048828125,-0.00048828125)">
   <path d="M 285,-33 C 182,-33 111,30 74,156 52,228 41,333 41,471 41,549 55,616 82,672 116,743 169,778 240,778 293,778 328,747 346,684 L 369,508 C 377,444 397,411 428,410 L 1163,1116 C 1174,1127 1196,1133 1229,1133 1271,1133 1292,1118 1292,1087 L 1292,965 C 1292,929 1282,901 1262,881 L 442,47 C 390,-6 338,-33 285,-33 Z"/>
  </g>
  <g id="bullet-char-template-9679" transform="scale(0.00048828125,-0.00048828125)">
   <path d="M 813,0 C 632,0 489,54 383,161 276,268 223,411 223,592 223,773 276,916 383,1023 489,1130 632,1184 813,1184 992,1184 1136,1130 1245,1023 1353,916 1407,772 1407,592 1407,412 1353,268 1245,161 1136,54 992,0 813,0 Z"/>
  </g>
  <g id="bullet-char-template-8226" transform="scale(0.00048828125,-0.00048828125)">
   <path d="M 346,457 C 273,457 209,483 155,535 101,586 74,649 74,723 74,796 101,859 155,911 209,963 273,989 346,989 419,989 480,963 531,910 582,859 608,796 608,723 608,648 583,586 532,535 482,483 420,457 346,457 Z"/>
  </g>
  <g id="bullet-char-template-8211" transform="scale(0.00048828125,-0.00048828125)">
   <path d="M -4,459 L 1135,459 1135,606 -4,606 -4,459 Z"/>
  </g>
  <g id="bullet-char-template-61548" transform="scale(0.00048828125,-0.00048828125)">
   <path d="M 173,740 C 173,903 231,1043 346,1159 462,1274 601,1332 765,1332 928,1332 1067,1274 1183,1159 1299,1043 1357,903 1357,740 1357,577 1299,437 1183,322 1067,206 928,148 765,148 601,148 462,206 346,322 231,437 173,577 173,740 Z"/>
  </g>
 </defs>
 <defs class="TextEmbeddedBitmaps"/>
 <g class="SlideGroup">
  <g>
   <g id="container-id1">
    <g id="id1" class="Slide" clip-path="url(#presentation_clip_path)">
     <g class="Page">
      <g class="com.sun.star.drawing.EllipseShape">
       <g id="id3">
        <rect class="BoundingBox" stroke="none" fill="none" x="10995" y="12900" width="1601" height="966"/>
        <path fill="none" stroke="rgb(0,0,0)" stroke-width="330" stroke-linejoin="round" stroke-linecap="round" d="M 12430,13065 C 12430,13182 12403,13281 12345,13383 12286,13484 12214,13556 12113,13615 12011,13673 11912,13700 11795,13700 11678,13700 11579,13673 11478,13615 11376,13556 11304,13484 11245,13383 11187,13281 11160,13182 11160,13065 L 11160,13065"/>
       </g>
      </g>
      <g class="com.sun.star.drawing.CustomShape">
       <g id="id4">
        <rect class="BoundingBox" stroke="none" fill="none" x="12264" y="12264" width="1603" height="1603"/>
        <path fill="none" stroke="rgb(0,0,0)" stroke-width="330" stroke-linejoin="round" stroke-linecap="round" d="M 13065,12430 C 12948,12430 12849,12456 12747,12515 12646,12573 12573,12646 12515,12747 12456,12849 12430,12948 12430,13065 12430,13182 12456,13281 12515,13383 12573,13484 12646,13557 12747,13615 12849,13674 12948,13701 13065,13701 13182,13701 13281,13674 13383,13615 13484,13557 13557,13484 13615,13383 13674,13281 13701,13182 13701,13065 13701,12948 13674,12849 13615,12747 13557,12646 13484,12573 13383,12515 13281,12456 13182,12430 13065,12430 Z"/>
       </g>
      </g>
      <g class="com.sun.star.drawing.EllipseShape">
       <g id="id5">
        <rect class="BoundingBox" stroke="none" fill="none" x="12265" y="10995" width="1601" height="966"/>
        <path fill="none" stroke="rgb(128,128,128)" stroke-width="330" stroke-linejoin="round" stroke-linecap="round" d="M 12430,11795 C 12430,11678 12457,11579 12515,11478 12574,11376 12646,11304 12748,11245 12849,11187 12948,11160 13065,11160 13182,11160 13281,11187 13383,11245 13484,11304 13556,11376 13615,11478 13673,11579 13700,11678 13700,11795 L 13700,11795"/>
       </g>
      </g>
      <g class="com.sun.star.drawing.LineShape">
       <g id="id6">
        <rect class="BoundingBox" stroke="none" fill="none" x="12265" y="11630" width="331" height="1601"/>
        <path fill="none" stroke="rgb(0,0,0)" stroke-width="330" stroke-linejoin="round" stroke-linecap="round" d="M 12430,11795 L 12430,13065"/>
       </g>
      </g>
      <g class="Group">
       <g class="com.sun.star.drawing.LineShape">
        <g id="id7">
         <rect class="BoundingBox" stroke="none" fill="none" x="10995" y="10995" width="966" height="1601"/>
         <path fill="none" stroke="rgb(102,102,102)" stroke-width="330" stroke-linejoin="round" stroke-linecap="round" d="M 11160,11160 L 11795,12430"/>
        </g>
       </g>
       <g class="com.sun.star.drawing.LineShape">
        <g id="id8">
         <rect class="BoundingBox" stroke="none" fill="none" x="11630" y="10995" width="966" height="1601"/>
         <path fill="none" stroke="rgb(102,102,102)" stroke-width="330" stroke-linejoin="round" stroke-linecap="round" d="M 12430,11160 L 11795,12430"/>
        </g>
       </g>
      </g>
      <g class="com.sun.star.drawing.CustomShape">
       <g id="id9">
        <rect class="BoundingBox" stroke="none" fill="none" x="9724" y="12264" width="1603" height="1603"/>
        <path fill="none" stroke="rgb(255,0,0)" stroke-width="330" stroke-linejoin="round" stroke-linecap="round" d="M 10525,12430 C 10642,12430 10741,12456 10843,12515 10944,12573 11017,12646 11075,12747 11134,12849 11161,12948 11161,13065 11161,13182 11134,13281 11075,13383 11017,13484 10944,13557 10843,13615 10741,13674 10642,13701 10525,13701 10408,13701 10309,13674 10207,13615 10106,13557 10033,13484 9975,13383 9916,13281 9890,13182 9890,13065 9890,12948 9916,12849 9975,12747 10033,12646 10106,12573 10207,12515 10309,12456 10408,12430 10525,12430 Z"/>
       </g>
      </g>
      <g class="com.sun.star.drawing.CustomShape">
       <g id="id10">
        <rect class="BoundingBox" stroke="none" fill="none" x="9724" y="10994" width="1603" height="1603"/>
        <path fill="none" stroke="rgb(51,51,51)" stroke-width="330" stroke-linejoin="round" stroke-linecap="round" d="M 10525,11160 C 10642,11160 10741,11186 10843,11245 10944,11303 11017,11376 11075,11477 11134,11579 11161,11678 11161,11795 11161,11912 11134,12011 11075,12113 11017,12214 10944,12287 10843,12345 10741,12404 10642,12431 10525,12431 10408,12431 10309,12404 10207,12345 10106,12287 10033,12214 9975,12113 9916,12011 9890,11912 9890,11795 9890,11678 9916,11579 9975,11477 10033,11376 10106,11303 10207,11245 10309,11186 10408,11160 10525,11160 Z"/>
       </g>
      </g>
      <g class="com.sun.star.drawing.LineShape">
       <g id="id11">
        <rect class="BoundingBox" stroke="none" fill="none" x="10995" y="11630" width="331" height="1591"/>
        <path fill="none" stroke="rgb(255,0,0)" stroke-width="330" stroke-linejoin="round" stroke-linecap="round" d="M 11160,11795 L 11160,13055"/>
       </g>
      </g>
     </g>
    </g>
   </g>
  </g>
 </g>
</svg>