<?xml version="1.0" encoding="UTF-8"?>
<!DOCTYPE svg PUBLIC "-//W3C//DTD SVG 1.1//EN" "http://www.w3.org/Graphics/SVG/1.1/DTD/svg11.dtd">
<svg version="1.2" width="23.63mm" height="28.71mm" viewBox="9344 7185 2363 2871" preserveAspectRatio="xMidYMid" fill-rule="evenodd" stroke-width="28.222" stroke-linejoin="round" xmlns="http://www.w3.org/2000/svg" xmlns:ooo="http://xml.openoffice.org/svg/export" xmlns:xlink="http://www.w3.org/1999/xlink" xmlns:presentation="http://sun.com/xmlns/staroffice/presentation" xmlns:smil="http://www.w3.org/2001/SMIL20/" xmlns:anim="urn:oasis:names:tc:opendocument:xmlns:animation:1.0" xml:space="preserve">
 <defs class="ClipPathGroup">
  <clipPath id="presentation_clip_path" clipPathUnits="userSpaceOnUse">
   <rect x="9344" y="7185" width="2363" height="2871"/>
  </clipPath>
  <clipPath id="presentation_clip_path_shrink" clipPathUnits="userSpaceOnUse">
   <rect x="9346" y="7187" width="2359" height="2866"/>
  </clipPath>
 </defs>
 <defs class="TextShapeIndex">
  <g ooo:slide="id1" ooo:id-list="id3 id4 id5 id6"/>
 </defs>
 <defs class="EmbeddedBulletChars">
  <g id="bullet-char-template-57356" transform="scale(0.00048828125,-0.00048828125)">
   <path d="M 580,1141 L 1163,571 580,0 -4,571 580,1141 Z"/>
  </g>
  <g id="bullet-char-template-57354" transform="scale(0.00048828125,-0.00048828125)">
   <path d="M 8,1128 L 1137,1128 1137,0 8,0 8,1128 Z"/>
  </g>
  <g id="bullet-char-template-10146" transform="scale(0.00048828125,-0.00048828125)">
   <path d="M 174,0 L 602,739 174,1481 1456,739 174,0 Z M 1358,739 L 309,1346 659,739 1358,739 Z"/>
  </g>
  <g id="bullet-char-template-10132" transform="scale(0.00048828125,-0.00048828125)">
   <path d="M 2015,739 L 1276,0 717,0 1260,543 174,543 174,936 1260,936 717,1481 1274,1481 2015,739 Z"/>
  </g>
  <g id="bullet-char-template-10007" transform="scale(0.00048828125,-0.00048828125)">
   <path d="M 0,-2 C -7,14 -16,27 -25,37 L 356,567 C 262,823 215,952 215,954 215,979 228,992 255,992 264,992 276,990 289,987 310,991 331,999 354,1012 L 381,999 492,748 772,1049 836,1024 860,1049 C 881,1039 901,1025 922,1006 886,937 835,863 770,784 769,783 710,716 594,584 L 774,223 C 774,196 753,168 711,139 L 727,119 C 717,90 699,76 672,76 641,76 570,178 457,381 L 164,-76 C 142,-110 111,-127 72,-127 30,-127 9,-110 8,-76 1,-67 -2,-52 -2,-32 -2,-23 -1,-13 0,-2 Z"/>
  </g>
  <g id="bullet-char-template-10004" transform="scale(0.00048828125,-0.00048828125)">
   <path d="M 285,-33 C 182,-33 111,30 74,156 52,228 41,333 41,471 41,549 55,616 82,672 116,743 169,778 240,778 293,778 328,747 346,684 L 369,508 C 377,444 397,411 428,410 L 1163,1116 C 1174,1127 1196,1133 1229,1133 1271,1133 1292,1118 1292,1087 L 1292,965 C 1292,929 1282,901 1262,881 L 442,47 C 390,-6 338,-33 285,-33 Z"/>
  </g>
  <g id="bullet-char-template-9679" transform="scale(0.00048828125,-0.00048828125)">
   <path d="M 813,0 C 632,0 489,54 383,161 276,268 223,411 223,592 223,773 276,916 383,1023 489,1130 632,1184 813,1184 992,1184 1136,1130 1245,1023 1353,916 1407,772 1407,592 1407,412 1353,268 1245,161 1136,54 992,0 813,0 Z"/>
  </g>
  <g id="bullet-char-template-8226" transform="scale(0.00048828125,-0.00048828125)">
   <path d="M 346,457 C 273,457 209,483 155,535 101,586 74,649 74,723 74,796 101,859 155,911 209,963 273,989 346,989 419,989 480,963 531,910 582,859 608,796 608,723 608,648 583,586 532,535 482,483 420,457 346,457 Z"/>
  </g>
  <g id="bullet-char-template-8211" transform="scale(0.00048828125,-0.00048828125)">
   <path d="M -4,459 L 1135,459 1135,606 -4,606 -4,459 Z"/>
  </g>
  <g id="bullet-char-template-61548" transform="scale(0.00048828125,-0.00048828125)">
   <path d="M 173,740 C 173,903 231,1043 346,1159 462,1274 601,1332 765,1332 928,1332 1067,1274 1183,1159 1299,1043 1357,903 1357,740 1357,577 1299,437 1183,322 1067,206 928,148 765,148 601,148 462,206 346,322 231,437 173,577 173,740 Z"/>
  </g>
 </defs>
 <defs class="TextEmbeddedBitmaps"/>
 <g class="SlideGroup">
  <g>
   <g id="container-id1">
    <g id="id1" class="Slide" clip-path="url(#presentation_clip_path)">
     <g class="Page">
      <g class="com.sun.star.drawing.CustomShape">
       <g id="id3">
        <rect class="BoundingBox" stroke="none" fill="none" x="9343" y="7438" width="2365" height="2365"/>
        <path fill="none" stroke="rgb(238,238,238)" stroke-width="330" stroke-linejoin="round" stroke-linecap="round" d="M 10525,7604 C 10712,7604 10871,7646 11033,7740 11195,7833 11312,7950 11405,8112 11499,8274 11542,8433 11542,8620 11542,8807 11499,8966 11405,9128 11312,9290 11195,9407 11033,9500 10871,9594 10712,9637 10525,9637 10338,9637 10179,9594 10017,9500 9855,9407 9738,9290 9645,9128 9551,8966 9509,8807 9509,8620 9509,8433 9551,8274 9645,8112 9738,7950 9855,7833 10017,7740 10179,7646 10338,7604 10525,7604 L 10525,7604 Z"/>
       </g>
      </g>
      <g class="com.sun.star.drawing.CustomShape">
       <g id="id4">
        <rect class="BoundingBox" stroke="none" fill="none" x="9724" y="8454" width="1603" height="1603"/>
        <path fill="none" stroke="rgb(255,0,0)" stroke-width="330" stroke-linejoin="round" stroke-linecap="round" d="M 10525,8620 C 10642,8620 10741,8646 10843,8705 10944,8763 11017,8836 11075,8937 11134,9039 11161,9138 11161,9255 11161,9372 11134,9471 11075,9573 11017,9674 10944,9747 10843,9805 10741,9864 10642,9891 10525,9891 10408,9891 10309,9864 10207,9805 10106,9747 10033,9674 9975,9573 9916,9471 9890,9372 9890,9255 9890,9138 9916,9039 9975,8937 10033,8836 10106,8763 10207,8705 10309,8646 10408,8620 10525,8620 Z"/>
       </g>
      </g>
      <g class="com.sun.star.drawing.CustomShape">
       <g id="id5">
        <rect class="BoundingBox" stroke="none" fill="none" x="9724" y="7184" width="1603" height="1603"/>
        <path fill="none" stroke="rgb(0,0,0)" stroke-width="330" stroke-linejoin="round" stroke-linecap="round" d="M 10525,7350 C 10642,7350 10741,7376 10843,7435 10944,7493 11017,7566 11075,7667 11134,7769 11161,7868 11161,7985 11161,8102 11134,8201 11075,8303 11017,8404 10944,8477 10843,8535 10741,8594 10642,8621 10525,8621 10408,8621 10309,8594 10207,8535 10106,8477 10033,8404 9975,8303 9916,8201 9890,8102 9890,7985 9890,7868 9916,7769 9975,7667 10033,7566 10106,7493 10207,7435 10309,7376 10408,7350 10525,7350 Z"/>
       </g>
      </g>
      <g class="com.sun.star.drawing.LineShape">
       <g id="id6">
        <rect class="BoundingBox" stroke="none" fill="none" x="10995" y="7820" width="331" height="1591"/>
        <path fill="none" stroke="rgb(255,0,0)" stroke-width="330" stroke-linejoin="round" stroke-linecap="round" d="M 11160,7985 L 11160,9245"/>
       </g>
      </g>
     </g>
    </g>
   </g>
  </g>
 </g>
</svg>