<?xml version="1.0" encoding="UTF-8"?>
<!DOCTYPE svg PUBLIC "-//W3C//DTD SVG 1.1//EN" "http://www.w3.org/Graphics/SVG/1.1/DTD/svg11.dtd">
<svg version="1.2" width="41.41mm" height="28.71mm" viewBox="4645 7185 4141 2871" preserveAspectRatio="xMidYMid" fill-rule="evenodd" stroke-width="28.222" stroke-linejoin="round" xmlns="http://www.w3.org/2000/svg" xmlns:ooo="http://xml.openoffice.org/svg/export" xmlns:xlink="http://www.w3.org/1999/xlink" xmlns:presentation="http://sun.com/xmlns/staroffice/presentation" xmlns:smil="http://www.w3.org/2001/SMIL20/" xmlns:anim="urn:oasis:names:tc:opendocument:xmlns:animation:1.0" xml:space="preserve">
 <defs class="ClipPathGroup">
  <clipPath id="presentation_clip_path" clipPathUnits="userSpaceOnUse">
   <rect x="4645" y="7185" width="4141" height="2871"/>
  </clipPath>
  <clipPath id="presentation_clip_path_shrink" clipPathUnits="userSpaceOnUse">
   <rect x="4649" y="7187" width="4133" height="2866"/>
  </clipPath>
 </defs>
 <defs class="TextShapeIndex">
  <g ooo:slide="id1" ooo:id-list="id3 id4 id5 id6 id7 id8 id9 id10 id11"/>
 </defs>
 <defs class="EmbeddedBulletChars">
  <g id="bullet-char-template-57356" transform="scale(0.00048828125,-0.00048828125)">
   <path d="M 580,1141 L 1163,571 580,0 -4,571 580,1141 Z"/>
  </g>
  <g id="bullet-char-template-57354" transform="scale(0.00048828125,-0.00048828125)">
   <path d="M 8,1128 L 1137,1128 1137,0 8,0 8,1128 Z"/>
  </g>
  <g id="bullet-char-template-10146" transform="scale(0.00048828125,-0.00048828125)">
   <path d="M 174,0 L 602,739 174,1481 1456,739 174,0 Z M 1358,739 L 309,1346 659,739 1358,739 Z"/>
  </g>
  <g id="bullet-char-template-10132" transform="scale(0.00048828125,-0.00048828125)">
   <path d="M 2015,739 L 1276,0 717,0 1260,543 174,543 174,936 1260,936 717,1481 1274,1481 2015,739 Z"/>
  </g>
  <g id="bullet-char-template-10007" transform="scale(0.00048828125,-0.00048828125)">
   <path d="M 0,-2 C -7,14 -16,27 -25,37 L 356,567 C 262,823 215,952 215,954 215,979 228,992 255,992 264,992 276,990 289,987 310,991 331,999 354,1012 L 381,999 492,748 772,1049 836,1024 860,1049 C 881,1039 901,1025 922,1006 886,937 835,863 770,784 769,783 710,716 594,584 L 774,223 C 774,196 753,168 711,139 L 727,119 C 717,90 699,76 672,76 641,76 570,178 457,381 L 164,-76 C 142,-110 111,-127 72,-127 30,-127 9,-110 8,-76 1,-67 -2,-52 -2,-32 -2,-23 -1,-13 0,-2 Z"/>
  </g>
  <g id="bullet-char-template-10004" transform="scale(0.00048828125,-0.00048828125)">
   <path d="M 285,-33 C 182,-33 111,30 74,156 52,228 41,333 41,471 41,549 55,616 82,672 116,743 169,778 240,778 293,778 328,747 346,684 L 369,508 C 377,444 397,411 428,410 L 1163,1116 C 1174,1127 1196,1133 1229,1133 1271,1133 1292,1118 1292,1087 L 1292,965 C 1292,929 1282,901 1262,881 L 442,47 C 390,-6 338,-33 285,-33 Z"/>
  </g>
  <g id="bullet-char-template-9679" transform="scale(0.00048828125,-0.00048828125)">
   <path d="M 813,0 C 632,0 489,54 383,161 276,268 223,411 223,592 223,773 276,916 383,1023 489,1130 632,1184 813,1184 992,1184 1136,1130 1245,1023 1353,916 1407,772 1407,592 1407,412 1353,268 1245,161 1136,54 992,0 813,0 Z"/>
  </g>
  <g id="bullet-char-template-8226" transform="scale(0.00048828125,-0.00048828125)">
   <path d="M 346,457 C 273,457 209,483 155,535 101,586 74,649 74,723 74,796 101,859 155,911 209,963 273,989 346,989 419,989 480,963 531,910 582,859 608,796 608,723 608,648 583,586 532,535 482,483 420,457 346,457 Z"/>
  </g>
  <g id="bullet-char-template-8211" transform="scale(0.00048828125,-0.00048828125)">
   <path d="M -4,459 L 1135,459 1135,606 -4,606 -4,459 Z"/>
  </g>
  <g id="bullet-char-template-61548" transform="scale(0.00048828125,-0.00048828125)">
   <path d="M 173,740 C 173,903 231,1043 346,1159 462,1274 601,1332 765,1332 928,1332 1067,1274 1183,1159 1299,1043 1357,903 1357,740 1357,577 1299,437 1183,322 1067,206 928,148 765,148 601,148 462,206 346,322 231,437 173,577 173,740 Z"/>
  </g>
 </defs>
 <defs class="TextEmbeddedBitmaps"/>
 <g class="SlideGroup">
  <g>
   <g id="container-id1">
    <g id="id1" class="Slide" clip-path="url(#presentation_clip_path)">
     <g class="Page">
      <g class="com.sun.star.drawing.EllipseShape">
       <g id="id3">
        <rect class="BoundingBox" stroke="none" fill="none" x="5915" y="9090" width="1601" height="966"/>
        <path fill="none" stroke="rgb(0,0,0)" stroke-width="330" stroke-linejoin="round" stroke-linecap="round" d="M 7350,9255 C 7350,9372 7323,9471 7265,9573 7206,9674 7134,9746 7033,9805 6931,9863 6832,9890 6715,9890 6598,9890 6499,9863 6398,9805 6296,9746 6224,9674 6165,9573 6107,9471 6080,9372 6080,9255 L 6080,9255"/>
       </g>
      </g>
      <g class="com.sun.star.drawing.CustomShape">
       <g id="id4">
        <rect class="BoundingBox" stroke="none" fill="none" x="7184" y="8454" width="1603" height="1603"/>
        <path fill="none" stroke="rgb(0,0,0)" stroke-width="330" stroke-linejoin="round" stroke-linecap="round" d="M 7985,8620 C 7868,8620 7769,8646 7667,8705 7566,8763 7493,8836 7435,8937 7376,9039 7350,9138 7350,9255 7350,9372 7376,9471 7435,9573 7493,9674 7566,9747 7667,9805 7769,9864 7868,9891 7985,9891 8102,9891 8201,9864 8303,9805 8404,9747 8477,9674 8535,9573 8594,9471 8621,9372 8621,9255 8621,9138 8594,9039 8535,8937 8477,8836 8404,8763 8303,8705 8201,8646 8102,8620 7985,8620 L 7985,8620 Z"/>
       </g>
      </g>
      <g class="com.sun.star.drawing.EllipseShape">
       <g id="id5">
        <rect class="BoundingBox" stroke="none" fill="none" x="7185" y="7185" width="1601" height="967"/>
        <path fill="none" stroke="rgb(0,0,0)" stroke-width="330" stroke-linejoin="round" stroke-linecap="round" d="M 7350,7985 C 7350,7868 7377,7769 7435,7668 7494,7566 7566,7494 7667,7435 7769,7377 7868,7350 7985,7350 8102,7350 8201,7377 8303,7435 8404,7494 8476,7566 8535,7668 8593,7769 8620,7868 8620,7985 L 8620,7985"/>
       </g>
      </g>
      <g class="Group">
       <g class="com.sun.star.drawing.LineShape">
        <g id="id6">
         <rect class="BoundingBox" stroke="none" fill="none" x="5915" y="7185" width="966" height="1601"/>
         <path fill="none" stroke="rgb(0,0,0)" stroke-width="330" stroke-linejoin="round" stroke-linecap="round" d="M 6080,7350 L 6715,8620"/>
        </g>
       </g>
       <g class="com.sun.star.drawing.LineShape">
        <g id="id7">
         <rect class="BoundingBox" stroke="none" fill="none" x="6550" y="7185" width="966" height="1601"/>
         <path fill="none" stroke="rgb(0,0,0)" stroke-width="330" stroke-linejoin="round" stroke-linecap="round" d="M 7350,7350 L 6715,8620"/>
        </g>
       </g>
      </g>
      <g class="com.sun.star.drawing.CustomShape">
       <g id="id8">
        <rect class="BoundingBox" stroke="none" fill="none" x="4644" y="8454" width="1603" height="1603"/>
        <path fill="none" stroke="rgb(255,0,0)" stroke-width="330" stroke-linejoin="round" stroke-linecap="round" d="M 5445,8620 C 5562,8620 5661,8646 5763,8705 5864,8763 5937,8836 5995,8937 6054,9039 6081,9138 6081,9255 6081,9372 6054,9471 5995,9573 5937,9674 5864,9747 5763,9805 5661,9864 5562,9891 5445,9891 5328,9891 5229,9864 5127,9805 5026,9747 4953,9674 4895,9573 4836,9471 4810,9372 4810,9255 4810,9138 4836,9039 4895,8937 4953,8836 5026,8763 5127,8705 5229,8646 5328,8620 5445,8620 L 5445,8620 Z"/>
       </g>
      </g>
      <g class="com.sun.star.drawing.CustomShape">
       <g id="id9">
        <rect class="BoundingBox" stroke="none" fill="none" x="4644" y="7184" width="1603" height="1603"/>
        <path fill="none" stroke="rgb(0,0,0)" stroke-width="330" stroke-linejoin="round" stroke-linecap="round" d="M 5445,7350 C 5562,7350 5661,7376 5763,7435 5864,7493 5937,7566 5995,7667 6054,7769 6081,7868 6081,7985 6081,8102 6054,8201 5995,8303 5937,8404 5864,8477 5763,8535 5661,8594 5562,8621 5445,8621 5328,8621 5229,8594 5127,8535 5026,8477 4953,8404 4895,8303 4836,8201 4810,8102 4810,7985 4810,7868 4836,7769 4895,7667 4953,7566 5026,7493 5127,7435 5229,7376 5328,7350 5445,7350 L 5445,7350 Z"/>
       </g>
      </g>
      <g class="com.sun.star.drawing.LineShape">
       <g id="id10">
        <rect class="BoundingBox" stroke="none" fill="none" x="5915" y="7820" width="331" height="1591"/>
        <path fill="none" stroke="rgb(255,0,0)" stroke-width="330" stroke-linejoin="round" stroke-linecap="round" d="M 6080,7985 L 6080,9245"/>
       </g>
      </g>
      <g class="com.sun.star.drawing.LineShape">
       <g id="id11">
        <rect class="BoundingBox" stroke="none" fill="none" x="7185" y="7820" width="331" height="1601"/>
        <path fill="none" stroke="rgb(0,0,0)" stroke-width="330" stroke-linejoin="round" stroke-linecap="round" d="M 7350,7985 L 7350,9255"/>
       </g>
      </g>
     </g>
    </g>
   </g>
  </g>
 </g>
</svg>